<svg xmlns="http://www.w3.org/2000/svg" xmlns:xlink="http://www.w3.org/1999/xlink" width="500" zoomAndPan="magnify" viewBox="0 0 375 374.999991" height="500" preserveAspectRatio="xMidYMid meet" version="1.0"><defs><clipPath id="8d5fb90a79"><path d="M 88.703125 63.820312 L 286.296875 63.820312 L 286.296875 311 L 88.703125 311 Z M 88.703125 63.820312 " clip-rule="nonzero"/></clipPath><clipPath id="8b480e071a"><path d="M 187.5 63.820312 C 132.933594 63.820312 88.703125 119.195312 88.703125 187.5 C 88.703125 255.804688 132.933594 311.179688 187.5 311.179688 C 242.066406 311.179688 286.296875 255.804688 286.296875 187.5 C 286.296875 119.195312 242.066406 63.820312 187.5 63.820312 " clip-rule="nonzero"/></clipPath></defs><g clip-path="url(#8d5fb90a79)"><g clip-path="url(#8b480e071a)"><path fill="#fff5f4" d="M 88.703125 63.820312 L 286.296875 63.820312 L 286.296875 310.816406 L 88.703125 310.816406 Z M 88.703125 63.820312 " fill-opacity="1" fill-rule="nonzero"/></g></g><path fill="#da755c" d="M 0 187.5 C 0 290.894531 84.105469 375 187.5 375 C 290.894531 375 375 290.894531 375 187.5 C 375 84.105469 290.894531 0 187.5 0 C 84.105469 0 0 84.105469 0 187.5 Z M 194.128906 84.105469 L 273.949219 163.863281 C 276.5625 166.472656 277.835938 169.886719 277.835938 173.304688 C 277.835938 176.785156 276.5625 180.199219 273.949219 182.8125 C 268.660156 188.035156 260.222656 188.035156 255 182.8125 L 198.082031 125.894531 L 198.082031 281.449219 C 198.082031 288.816406 192.054688 294.84375 184.6875 294.84375 C 177.320312 294.84375 171.292969 288.816406 171.292969 281.449219 L 171.292969 125.894531 L 120 177.1875 C 114.777344 182.410156 106.339844 182.410156 101.050781 177.1875 C 95.824219 171.964844 95.824219 163.460938 101.050781 158.238281 L 175.246094 84.105469 C 180.46875 78.882812 188.90625 78.882812 194.128906 84.105469 Z M 194.128906 84.105469 " fill-opacity="1" fill-rule="nonzero"/></svg>