<svg xmlns="http://www.w3.org/2000/svg" xmlns:xlink="http://www.w3.org/1999/xlink" width="400" zoomAndPan="magnify" viewBox="0 0 300 299.999988" height="400" preserveAspectRatio="xMidYMid meet" version="1.0"><path fill="#da755c" d="M 150 300 C 232.84375 300 300 232.84375 300 150 C 300 67.15625 232.84375 0 150 0 C 67.15625 0 0 67.15625 0 150 C 0 232.84375 67.15625 300 150 300 Z M 81.871094 86.183594 L 150 140.6875 L 218.128906 86.183594 L 220.09375 84.546875 L 79.90625 84.546875 Z M 227.382812 97.40625 L 230 95.226562 L 230 208.183594 C 230 212.199219 226.742188 215.453125 222.726562 215.453125 L 77.273438 215.453125 C 73.257812 215.453125 70 212.199219 70 208.183594 L 70 95.226562 L 72.617188 97.40625 L 72.730469 97.496094 L 145.457031 155.679688 C 148.113281 157.804688 151.886719 157.804688 154.542969 155.679688 L 227.269531 97.496094 Z M 227.382812 97.40625 " fill-opacity="1" fill-rule="evenodd"/></svg>