<svg xmlns="http://www.w3.org/2000/svg" xmlns:xlink="http://www.w3.org/1999/xlink" width="400" zoomAndPan="magnify" viewBox="0 0 300 299.999988" height="400" preserveAspectRatio="xMidYMid meet" version="1.0"><path fill="#da755c" d="M 230.339844 163.054688 C 230.238281 163.0625 230.132812 163.0625 230.03125 163.0625 C 227.347656 163.0625 225.09375 160.96875 224.933594 158.25 C 223.707031 137.480469 215.148438 117.738281 200.863281 102.65625 C 186.566406 87.578125 167.304688 77.980469 146.628906 75.644531 C 143.824219 75.328125 141.808594 72.792969 142.125 69.988281 C 142.441406 67.183594 144.984375 65.148438 147.78125 65.480469 C 170.847656 68.089844 192.332031 78.792969 208.28125 95.621094 C 224.234375 112.445312 233.769531 134.476562 235.140625 157.648438 C 235.308594 160.46875 233.160156 162.890625 230.339844 163.054688 Z M 145.261719 102.390625 C 145.578125 99.589844 148.097656 97.585938 150.921875 97.890625 C 164.65625 99.445312 177.457031 105.820312 186.949219 115.839844 C 196.449219 125.859375 202.128906 138.976562 202.949219 152.777344 C 203.113281 155.597656 200.964844 158.019531 198.144531 158.183594 C 198.042969 158.195312 197.941406 158.195312 197.835938 158.195312 C 195.152344 158.195312 192.894531 156.101562 192.738281 153.386719 C 192.066406 141.984375 187.371094 131.152344 179.527344 122.875 C 171.6875 114.601562 161.117188 109.335938 149.765625 108.046875 C 146.964844 107.734375 144.949219 105.199219 145.261719 102.390625 Z M 222.109375 229.015625 C 221.957031 229.171875 216.019531 234.785156 215.859375 234.941406 C 204.863281 245.511719 187.589844 247.609375 173.246094 244.25 C 168.011719 243.027344 162.914062 241.265625 157.980469 239.125 C 135.738281 229.457031 114.632812 212.355469 97.679688 194.375 C 80.628906 176.480469 64.683594 154.496094 56.21875 131.761719 C 54.34375 126.722656 52.859375 121.535156 51.914062 116.242188 C 49.328125 101.746094 52.347656 84.605469 63.492188 74.191406 C 63.660156 74.035156 69.578125 68.410156 69.746094 68.261719 C 80.789062 58.570312 90.230469 70.867188 99.03125 80.320312 C 106.550781 88.394531 119.183594 101.6875 117.082031 113.824219 C 115.921875 120.566406 108.761719 125.496094 106.273438 132.105469 C 103.101562 140.539062 104.597656 148.9375 109.917969 156.148438 C 113.484375 160.972656 117.824219 166.113281 122.457031 170.886719 C 126.976562 175.765625 131.875 180.378906 136.503906 184.195312 C 143.421875 189.894531 151.726562 191.84375 160.316406 189.125 C 167.050781 186.992188 172.355469 180.109375 179.148438 179.304688 C 191.382812 177.855469 203.980469 191.1875 211.636719 199.125 C 220.605469 208.425781 232.386719 218.503906 222.109375 229.015625 Z M 149.996094 -0.046875 C 67.160156 -0.046875 0.0078125 67.105469 0.0078125 149.945312 C 0.0078125 232.78125 67.160156 299.9375 149.996094 299.9375 C 232.835938 299.9375 299.988281 232.78125 299.988281 149.945312 C 299.988281 67.105469 232.835938 -0.046875 149.996094 -0.046875 " fill-opacity="1" fill-rule="nonzero"/></svg>