<svg xmlns="http://www.w3.org/2000/svg" xmlns:xlink="http://www.w3.org/1999/xlink" width="400" zoomAndPan="magnify" viewBox="0 0 300 299.999988" height="400" preserveAspectRatio="xMidYMid meet" version="1.0"><defs><clipPath id="584144753c"><path d="M 0.03125 0 L 300 0 L 300 300 L 0.03125 300 Z M 0.03125 0 " clip-rule="nonzero"/></clipPath></defs><g clip-path="url(#584144753c)"><path fill="#c0564a" d="M 150.03125 0 C 67.171875 0 0.03125 67.140625 0.03125 150 C 0.03125 232.859375 67.171875 300 150.03125 300 C 232.890625 300 300.03125 232.859375 300.03125 150 C 300.03125 67.140625 232.890625 0 150.03125 0 Z M 222.453125 214.921875 L 170.671875 214.921875 L 170.671875 160.320312 C 170.671875 157.261719 168.210938 154.800781 165.152344 154.800781 L 137.191406 154.800781 C 134.132812 154.800781 131.671875 157.261719 131.671875 160.320312 L 131.671875 214.921875 L 79.953125 214.921875 C 77.011719 214.921875 74.613281 212.519531 74.613281 209.578125 L 74.613281 119.039062 C 74.613281 117.359375 75.390625 115.800781 76.710938 114.78125 L 148.050781 61.019531 C 149.972656 59.578125 152.550781 59.578125 154.472656 61.019531 L 225.8125 114.78125 C 227.132812 115.800781 227.910156 117.359375 227.910156 119.039062 L 227.910156 209.398438 C 227.972656 212.460938 225.511719 214.921875 222.453125 214.921875 Z M 222.453125 214.921875 " fill-opacity="1" fill-rule="nonzero"/></g></svg>