<svg xmlns="http://www.w3.org/2000/svg" xmlns:xlink="http://www.w3.org/1999/xlink" width="400" zoomAndPan="magnify" viewBox="0 0 300 299.999988" height="400" preserveAspectRatio="xMidYMid meet" version="1.0"><path fill="#c0564a" d="M 150 116.753906 C 131.6875 116.753906 116.753906 131.6875 116.753906 150 C 116.753906 168.3125 131.6875 183.246094 150 183.246094 C 168.3125 183.246094 183.246094 168.3125 183.246094 150 C 183.246094 131.6875 168.3125 116.753906 150 116.753906 Z M 150 116.753906 " fill-opacity="1" fill-rule="nonzero"/><path fill="#c0564a" d="M 194.675781 68.441406 L 105.324219 68.441406 C 85.066406 68.441406 68.441406 84.933594 68.441406 105.324219 L 68.441406 194.675781 C 68.441406 214.933594 84.933594 231.558594 105.324219 231.558594 L 194.675781 231.558594 C 214.933594 231.558594 231.558594 215.066406 231.558594 194.675781 L 231.558594 105.324219 C 231.429688 84.933594 214.933594 68.441406 194.675781 68.441406 Z M 150 200 C 122.335938 200 99.871094 177.53125 99.871094 149.871094 C 99.871094 122.207031 122.335938 99.742188 150 99.742188 C 177.664062 99.742188 200.128906 122.207031 200.128906 149.871094 C 200 177.53125 177.53125 200 150 200 Z M 203.636719 108.183594 C 197.011719 108.183594 191.558594 102.726562 191.558594 96.105469 C 191.558594 89.480469 197.011719 84.027344 203.636719 84.027344 C 210.257812 84.027344 215.714844 89.480469 215.714844 96.105469 C 215.714844 102.855469 210.390625 108.183594 203.636719 108.183594 Z M 203.636719 108.183594 " fill-opacity="1" fill-rule="nonzero"/><path fill="#c0564a" d="M 150 0 C 67.144531 0 0 67.144531 0 150 C 0 232.855469 67.144531 300 150 300 C 232.855469 300 300 232.855469 300 150 C 299.871094 67.144531 232.726562 0 150 0 Z M 248.3125 194.675781 C 248.3125 224.285156 224.15625 248.441406 194.546875 248.441406 L 105.324219 248.441406 C 75.714844 248.441406 51.558594 224.285156 51.558594 194.675781 L 51.558594 105.324219 C 51.558594 75.714844 75.714844 51.558594 105.324219 51.558594 L 194.675781 51.558594 C 224.285156 51.558594 248.441406 75.714844 248.441406 105.324219 L 248.441406 194.675781 Z M 248.3125 194.675781 " fill-opacity="1" fill-rule="nonzero"/></svg>