<svg xmlns="http://www.w3.org/2000/svg" xmlns:xlink="http://www.w3.org/1999/xlink" width="400" zoomAndPan="magnify" viewBox="0 0 300 299.999988" height="400" preserveAspectRatio="xMidYMid meet" version="1.0"><path fill="#da755c" d="M 149.699219 -0.15625 C 67.070312 -0.15625 -0.15625 67.070312 -0.15625 149.699219 C -0.15625 232.328125 67.070312 299.554688 149.699219 299.554688 C 232.328125 299.554688 299.554688 232.328125 299.554688 149.699219 C 299.554688 67.070312 232.328125 -0.15625 149.699219 -0.15625 Z M 186.964844 154.972656 L 162.585938 154.972656 C 162.585938 193.925781 162.585938 241.882812 162.585938 241.882812 L 126.457031 241.882812 C 126.457031 241.882812 126.457031 194.390625 126.457031 154.972656 L 109.285156 154.972656 L 109.285156 124.261719 L 126.457031 124.261719 L 126.457031 104.394531 C 126.457031 90.167969 133.21875 67.9375 162.917969 67.9375 L 189.675781 68.039062 L 189.675781 97.851562 C 189.675781 97.851562 173.410156 97.851562 170.246094 97.851562 C 167.082031 97.851562 162.589844 99.433594 162.589844 106.21875 L 162.589844 124.269531 L 190.117188 124.269531 Z M 186.964844 154.972656 " fill-opacity="1" fill-rule="nonzero"/></svg>