<svg xmlns="http://www.w3.org/2000/svg" xmlns:xlink="http://www.w3.org/1999/xlink" width="400" zoomAndPan="magnify" viewBox="0 0 300 299.999988" height="400" preserveAspectRatio="xMidYMid meet" version="1.0"><defs><clipPath id="0bf8fe28a2"><path d="M 0 0 L 300 0 L 300 299.351562 L 0 299.351562 Z M 0 0 " clip-rule="nonzero"/></clipPath></defs><g clip-path="url(#0bf8fe28a2)"><path fill="#ffffff" d="M 30 109.25 L 145 109.25 L 145 174.195312 L 30 174.195312 Z M 160 109.25 L 275 109.25 L 275 174.195312 L 160 174.195312 Z M 156.5625 109.117188 C 156.5625 109.117188 220.496094 47.683594 186.222656 33.789062 C 151.925781 19.894531 154.765625 102.691406 154.765625 102.691406 C 154.765625 102.691406 142.03125 1.03125 190.832031 22.316406 C 239.609375 43.574219 159.582031 106.570312 159.582031 106.570312 C 159.582031 106.570312 276.746094 6.546875 300 106.570312 C 262.394531 37.277344 156.5625 109.117188 156.5625 109.117188 C 156.5625 109.117188 39.402344 68.398438 0 119.265625 C 14.53125 26.347656 154.765625 108.339844 154.765625 108.339844 C 154.765625 108.339844 40.417969 39.542969 88.722656 6.523438 C 137.03125 -26.523438 152.761719 98.242188 152.761719 98.242188 C 152.761719 98.242188 137.394531 3.527344 98.203125 22.316406 C 58.984375 41.078125 156.5625 109.117188 156.5625 109.117188 Z M 160 189.183594 L 260 189.183594 L 260 299.09375 L 160 299.09375 Z M 45 189.183594 L 145 189.183594 L 145 299.09375 L 45 299.09375 Z M 45 189.183594 " fill-opacity="1" fill-rule="evenodd"/><path fill="#ffffff" d="M 30 109.25 L 145 109.25 L 145 174.195312 L 30 174.195312 Z M 160 109.25 L 275 109.25 L 275 174.195312 L 160 174.195312 Z M 156.5625 109.117188 C 156.5625 109.117188 220.496094 47.683594 186.222656 33.789062 C 151.925781 19.894531 154.765625 102.691406 154.765625 102.691406 C 154.765625 102.691406 142.03125 1.03125 190.832031 22.316406 C 239.609375 43.574219 159.582031 106.570312 159.582031 106.570312 C 159.582031 106.570312 276.746094 6.546875 300 106.570312 C 262.394531 37.277344 156.5625 109.117188 156.5625 109.117188 C 156.5625 109.117188 39.402344 68.398438 0 119.265625 C 14.53125 26.347656 154.765625 108.339844 154.765625 108.339844 C 154.765625 108.339844 40.417969 39.542969 88.722656 6.523438 C 137.03125 -26.523438 152.761719 98.242188 152.761719 98.242188 C 152.761719 98.242188 137.394531 3.527344 98.203125 22.316406 C 58.984375 41.078125 156.5625 109.117188 156.5625 109.117188 Z M 160 189.183594 L 260 189.183594 L 260 299.09375 L 160 299.09375 Z M 45 189.183594 L 145 189.183594 L 145 299.09375 L 45 299.09375 Z M 45 189.183594 " fill-opacity="1" fill-rule="evenodd"/></g></svg>