<?xml version="1.0" encoding="utf-8"?>
<!-- Generator: Adobe Illustrator 25.4.8, SVG Export Plug-In . SVG Version: 6.00 Build 0)  -->
<svg version="1.1" id="Calque_1" xmlns="http://www.w3.org/2000/svg" xmlns:xlink="http://www.w3.org/1999/xlink" x="0px" y="0px"
	 viewBox="0 0 565.7 505.8" style="enable-background:new 0 0 565.7 505.8;" xml:space="preserve">
<style type="text/css">
	.st0{fill:none;}
	.st1{fill:url(#SVGID_1_);}
	.st2{fill:url(#SVGID_00000120543410708103467110000007150906421930968759_);}
	.st3{fill:url(#SVGID_00000086653823579574971380000000295947249767358896_);}
	.st4{fill:#FFFFFF;}
	.st5{fill:url(#SVGID_00000127020560467650943050000016778205489734257294_);}
	.st6{fill:#C31513;}
	.st7{fill:url(#SVGID_00000074440989774106287120000003613133028597790139_);}
	.st8{fill:url(#SVGID_00000112598892585904432140000003121310444551174296_);}
	.st9{fill:url(#SVGID_00000116929679434437864210000005129297546017530777_);}
	.st10{fill:url(#SVGID_00000072999616869789479000000013038894657293412762_);}
	.st11{fill:url(#SVGID_00000132053006572032717790000013928026353096790148_);}
	.st12{fill:url(#SVGID_00000142150321724593198860000009354224120745824131_);}
	.st13{fill:url(#SVGID_00000163784561832345788140000008251008307016064190_);}
	.st14{fill:url(#SVGID_00000054944165993979459800000001094335084794510760_);}
	.st15{fill:url(#SVGID_00000154384946476491001250000009325727973822052529_);}
	.st16{fill:url(#SVGID_00000117673554785192750280000011310481100058856332_);}
	.st17{fill:url(#SVGID_00000027566955612799098010000002869107178749568424_);}
	.st18{fill:url(#SVGID_00000041290767996439003780000014660839371191948459_);}
	.st19{fill:url(#SVGID_00000149367256758881951210000003886174587079173804_);}
	.st20{fill:url(#SVGID_00000024699263393641201960000018149200434428872350_);}
	.st21{fill:url(#SVGID_00000067949299698473562170000016747192398405873084_);}
	.st22{fill:url(#SVGID_00000149365065664045000420000014437467156070095532_);}
</style>
<path d="M419.8,215.9c-3.2,12.9-8.9,24.4-16.4,34.4c-1.1,1.4-2.2,2.9-3.4,4.2c-4.4,5.1-9.2,9.8-14.5,13.9c-1.6,1.2-3.2,2.4-4.8,3.5
	c6.4-5.6,12.1-12.1,16.9-19.3c0.9-1.3,1.7-2.7,2.6-4.1c4.6-7.7,8.1-16.2,10.4-25.4c-9.2-2.3-18.4-3.2-27.4-2.8
	c-1.2,0-2.4,0.1-3.6,0.2c-1.8,0.2-3.5,0.4-5.3,0.6c-0.7,0.1-1.4,0.2-2.2,0.3c0-1.6,0-3.2,0-5c0-0.1,0-0.1,0-0.2c1-0.3,2-0.5,3.1-0.8
	c2-0.5,4-0.9,6.1-1.2c1.5-0.2,3-0.4,4.4-0.6C396.6,212.4,408.2,213,419.8,215.9z"/>
<g>
	<path class="st0" d="M308.1,184.7c-0.5-0.8-0.9-1.6-1.5-2.4c-0.1-0.2-0.3-0.5-0.5-0.7c-0.4-0.7-0.9-1.3-1.3-2c0,0,0-0.1-0.1-0.1
		c-0.5-0.7-0.9-1.4-1.4-2c-0.2-0.3-0.4-0.6-0.7-0.9c-0.4-0.5-0.7-1-1.1-1.5c-0.5-0.6-1-1.3-1.5-1.9c0-0.1-0.1-0.1-0.1-0.2
		c-0.5-0.7-1.1-1.3-1.6-1.9c-0.5-0.6-1.1-1.2-1.6-1.9c-0.1-0.1-0.1-0.1-0.2-0.2c0.2,1,0.3,2,0.5,3c0.1,0.8,0.2,1.5,0.3,2.2
		c0,0.4,0.1,0.8,0.1,1.2c0.1,1.1,0.2,2.2,0.2,3.3c0,0.5,0,1,0,1.5l0,0c0.3,0.4,0.6,0.7,0.9,1.1c0.3,0.4,0.6,0.7,0.9,1.1
		c0.6,0.7,1.2,1.4,1.7,2.2l0.1,0.1c0.6,0.7,1.1,1.4,1.6,2.1c0.5,0.7,1.1,1.5,1.5,2.2l0,0c0,0,0,0,0.1,0c0.2,0,0.5,0,0.7,0.1
		c0.1,0,0.2,0,0.2,0c0.1,0,0.1,0,0.2,0c0.2,0,0.5,0.1,0.7,0.2l0,0c0.4-0.5,0.9-0.9,1.3-1.4c0.5-0.5,0.9-1,1.4-1.5
		C308.8,185.9,308.4,185.3,308.1,184.7z"/>
</g>
<linearGradient id="SVGID_1_" gradientUnits="userSpaceOnUse" x1="193.12" y1="-182.8378" x2="418.0402" y2="-76.6255" gradientTransform="matrix(1 0 0 1 0 362)">
	<stop  offset="0" style="stop-color:#791913"/>
	<stop  offset="2.721144e-02" style="stop-color:#892D21"/>
	<stop  offset="7.476132e-02" style="stop-color:#A34B37"/>
	<stop  offset="0.1234" style="stop-color:#BA664E"/>
	<stop  offset="0.1728" style="stop-color:#CB7B61"/>
	<stop  offset="0.2235" style="stop-color:#D7896D"/>
	<stop  offset="0.2775" style="stop-color:#DA8D71"/>
	<stop  offset="0.5134" style="stop-color:#DCA390"/>
	<stop  offset="0.8001" style="stop-color:#E5AE65"/>
	<stop  offset="1" style="stop-color:#781912"/>
</linearGradient>
<path class="st1" d="M385.4,213.7c-1.5,0.2-3,0.4-4.4,0.6c-2,0.3-4.1,0.8-6.1,1.2c-1,0.2-2,0.5-3.1,0.8c0,0.1,0,0.1,0,0.2
	c0,1.7,0.1,3.4,0,5c0.7-0.1,1.4-0.2,2.2-0.3c1.8-0.2,3.5-0.4,5.3-0.6c1.2-0.1,2.4-0.2,3.6-0.2c9-0.4,18.2,0.5,27.4,2.8
	c-2.3,9.2-5.8,17.7-10.4,25.4c-0.8,1.4-1.7,2.8-2.6,4.1c-4.8,7.2-10.5,13.7-16.9,19.3c1.6-1.1,3.3-2.3,4.8-3.5
	c5.3-4.1,10.2-8.7,14.5-13.9c1.2-1.4,2.3-2.8,3.4-4.2c7.5-10,13.2-21.5,16.4-34.4C408.2,213,396.6,212.4,385.4,213.7z M340.8,171.8
	c-10.2,3.7-19.4,9-27.4,15.5c-0.9,0.7-1.7,1.4-2.6,2.2c-0.4,0.4-0.9,0.7-1.3,1.1c0,0,0,0,0.1,0c0.6,0.4,1.2,0.8,1.7,1.3
	c0.2,0.2,0.4,0.4,0.6,0.6c0.1,0.1,0.2,0.2,0.3,0.3c0.2,0.2,0.4,0.4,0.6,0.7c0.8-0.6,1.6-1.1,2.5-1.7c6.1-4.1,12.8-7.4,20-10.1
	c0.3,0.8,0.6,1.7,0.9,2.5c0.5-0.1,1-0.2,1.5-0.3c0.4-0.1,0.8-0.1,1.3-0.2c0.9-0.1,1.8-0.2,2.8-0.3c0.3,0,0.6,0,0.8,0
	c0.6,0,1.2,0,1.8,0l0,0C343.3,179.7,342.2,175.7,340.8,171.8z M307.3,206.4L307.3,206.4L307.3,206.4L307.3,206.4L307.3,206.4z
	 M211.7,215.6c-2-0.5-4-0.9-6.1-1.2c-1.5-0.2-3-0.4-4.4-0.6c-11.2-1.3-22.8-0.7-34.4,2.2c3.2,12.9,8.9,24.4,16.4,34.4
	c1.1,1.4,2.2,2.9,3.4,4.2c4.4,5.1,9.2,9.8,14.5,13.9c1.4,1.1,2.9,2.2,4.4,3.2c-6.3-5.5-11.8-11.9-16.5-19c-0.9-1.3-1.7-2.7-2.6-4.1
	c-4.6-7.7-8.1-16.3-10.4-25.4c9.2-2.3,18.5-3.2,27.5-2.8c1.2,0.1,2.4,0.1,3.6,0.2c1.8,0.2,3.6,0.4,5.3,0.6c2.1,0.3,4.1,0.7,6.1,1.1
	c0.2-1.5,0.4-3,0.7-4.6C216.8,216.9,214.3,216.2,211.7,215.6z M215.3,190.8c-0.1-0.6-0.1-1.2-0.2-1.8c0-0.4-0.1-0.8-0.1-1.2
	c0-0.3-0.1-0.7-0.1-1c0-0.4-0.1-0.8-0.1-1.2c0-0.6-0.1-1.1-0.1-1.7c-1.3-0.3-2.7-0.6-4-0.9c-0.4-0.1-0.8-0.1-1.1-0.2
	c-0.9-0.2-1.9-0.3-2.8-0.5c-0.3-0.1-0.7-0.1-1.1-0.2c-0.6-0.1-1.1-0.2-1.7-0.2c-0.5,4-0.7,7.9-0.7,11.8c0,5.9,0.5,11.7,1.6,17.4
	c2.2,0.6,4.4,1.2,6.5,1.9c-0.3-2.9-0.4-5.7-0.4-8.7c0-3.9,0.2-7.8,0.7-11.8c0.6,0.1,1.3,0.2,1.9,0.3c0.6,0.1,1.3,0.2,1.9,0.3
	C215.5,192.3,215.4,191.5,215.3,190.8z M308.1,184.7c-0.5-0.8-0.9-1.6-1.5-2.4c-0.1-0.2-0.3-0.5-0.5-0.7c-0.4-0.7-0.9-1.3-1.3-2
	c0,0,0-0.1-0.1-0.1c-0.5-0.7-0.9-1.4-1.4-2c-0.2-0.3-0.4-0.6-0.7-0.9c-0.4-0.5-0.7-1-1.1-1.5c-0.5-0.6-1-1.3-1.5-1.9
	c0-0.1-0.1-0.1-0.1-0.2c-0.5-0.7-1.1-1.3-1.6-1.9c-0.5-0.6-1.1-1.2-1.6-1.9c-0.1-0.1-0.1-0.1-0.2-0.2c0.2,1,0.3,2,0.5,3
	c0.1,0.8,0.2,1.5,0.3,2.2c0,0.4,0.1,0.8,0.1,1.2c0.1,1.1,0.2,2.2,0.2,3.3c0,0.5,0,1,0,1.5l0,0l0.9,1.1c0.3,0.4,0.6,0.7,0.9,1.1
	c0.6,0.7,1.2,1.4,1.7,2.2l0.1,0.1c0.5,0.7,1.1,1.4,1.6,2.1c0.5,0.7,1,1.5,1.5,2.2l0,0c0,0,0,0,0.1,0c0.2,0,0.5,0,0.7,0.1
	c0.1,0,0.2,0,0.2,0c0.1,0,0.1,0,0.2,0c0.2,0,0.5,0.1,0.7,0.2c-0.1,0.1-0.2,0.2-0.2,0.2c0.1-0.1,0.2-0.2,0.2-0.2
	c0.4-0.5,0.9-0.9,1.3-1.4c0.5-0.5,0.9-1,1.4-1.5C308.8,185.9,308.4,185.3,308.1,184.7z M382.5,181.9c-1.5,0.2-2.9,0.4-4.4,0.7
	c-0.7,0.1-1.4,0.2-2.2,0.4c-1.4,0.3-2.9,0.6-4.3,0.9c-0.7,0.2-1.4,0.3-2.1,0.5c-0.4,0.1-0.9,0.2-1.3,0.4c-0.4,0.1-0.8,0.2-1.2,0.3
	c-0.7,0.2-1.4,0.4-2.1,0.6c-2.2,0.7-4.3,1.4-6.4,2.3c0.1,0,0.1,0.1,0.2,0.1c0.8,0.6,1.6,1.2,2.5,1.9c0.2,0.2,0.5,0.4,0.7,0.6
	c1.1,1,2.1,2.2,3.1,3.5c0.8-0.2,1.7-0.4,2.5-0.5c0.5-0.1,1-0.2,1.5-0.3s1-0.2,1.5-0.3c0.7-0.1,1.4-0.2,2.1-0.3s1.4-0.2,2.1-0.3
	c0.5,3.9,0.7,7.9,0.7,11.8c0,2.9-0.1,5.8-0.4,8.7c2.1-0.7,4.3-1.3,6.5-1.9c1.1-5.7,1.6-11.5,1.6-17.4
	C383.2,189.8,383,185.8,382.5,181.9z"/>
<g>
	<path class="st0" d="M309.1,186.5c-0.5,0.5-1,1-1.4,1.5c-0.5,0.5-0.9,0.9-1.3,1.4l0,0c-0.2-0.1-0.5-0.1-0.7-0.2c-0.1,0-0.1,0-0.2,0
		s-0.2,0-0.2,0c-0.2,0-0.5-0.1-0.7-0.1c0,0,0,0-0.1,0l0,0c-0.5-0.7-1-1.5-1.5-2.2s-1.1-1.4-1.6-2.1c0,0,0,0-0.1-0.1
		c-0.6-0.7-1.1-1.5-1.7-2.2c-0.3-0.4-0.6-0.7-0.9-1.1c-0.3-0.4-0.6-0.7-0.9-1.1l0,0c0-0.5,0-1,0-1.5c0-1.1-0.1-2.2-0.2-3.3
		c0-0.4-0.1-0.8-0.1-1.2c-0.1-0.7-0.2-1.5-0.3-2.2c-0.1-1-0.3-2-0.5-3c0.1,0.1,0.1,0.1,0.2,0.2c0.6,0.6,1.1,1.2,1.6,1.9
		c0.5,0.6,1.1,1.3,1.6,1.9c0,0.1,0.1,0.1,0.1,0.2c0.5,0.6,1,1.3,1.5,1.9c0.4,0.5,0.7,1,1.1,1.5c0.2,0.3,0.5,0.6,0.7,0.9
		c0.5,0.7,1,1.3,1.4,2c0,0,0,0.1,0.1,0.1c0.4,0.7,0.9,1.3,1.3,2c0.2,0.2,0.3,0.5,0.5,0.7c0.5,0.8,1,1.6,1.5,2.4
		C308.4,185.3,308.8,185.9,309.1,186.5z"/>
</g>
<linearGradient id="SVGID_00000112627529395580633470000012970428370900596155_" gradientUnits="userSpaceOnUse" x1="186.0698" y1="-167.9087" x2="410.9902" y2="-61.6963" gradientTransform="matrix(1 0 0 1 0 362)">
	<stop  offset="0" style="stop-color:#791913"/>
	<stop  offset="2.721144e-02" style="stop-color:#892D21"/>
	<stop  offset="7.476132e-02" style="stop-color:#A34B37"/>
	<stop  offset="0.1234" style="stop-color:#BA664E"/>
	<stop  offset="0.1728" style="stop-color:#CB7B61"/>
	<stop  offset="0.2235" style="stop-color:#D7896D"/>
	<stop  offset="0.2775" style="stop-color:#DA8D71"/>
	<stop  offset="0.5134" style="stop-color:#DCA390"/>
	<stop  offset="0.8001" style="stop-color:#E5AE65"/>
	<stop  offset="1" style="stop-color:#781912"/>
</linearGradient>
<path style="fill:url(#SVGID_00000112627529395580633470000012970428370900596155_);" d="M419.1,259.3c-7.3,0.8-16.3,3.4-20.7,7.7
	c-21.1,19.9-48.5,29.5-75.6,28.7c-3.7-0.1-7.4-0.4-11-0.9c-0.2,0-0.5-0.1-0.8-0.1c-1.5-0.2-3-0.5-4.6-0.8c-1.2-0.2-2.4-0.5-3.6-0.7
	c-0.8-0.2-1.5-0.4-2.2-0.5c-0.1,0-0.2,0-0.3-0.1c-0.4-0.1-0.8-0.2-1.2-0.3c0.6,0,1.2-0.1,1.7-0.1c0.7,0,1.5-0.1,2.2-0.2
	c1.1-0.1,2.2-0.2,3.2-0.3c2.7-0.3,5.3-0.7,7.9-1.3c2.2,0.2,4.5,0.4,6.7,0.5c14,0.5,28-1.7,41.2-6.7c6.6-2.5,13-5.7,19.1-9.6
	s11.8-8.4,17.2-13.6c1.7-1.7,4.2-3.2,7-4.5C409.7,258,414.7,259,419.1,259.3z"/>
<linearGradient id="SVGID_00000089543275564238726640000002511233112118868895_" gradientUnits="userSpaceOnUse" x1="161.3906" y1="-115.6466" x2="386.3109" y2="-9.4342" gradientTransform="matrix(1 0 0 1 0 362)">
	<stop  offset="0" style="stop-color:#791913"/>
	<stop  offset="2.721144e-02" style="stop-color:#892D21"/>
	<stop  offset="7.476132e-02" style="stop-color:#A34B37"/>
	<stop  offset="0.1234" style="stop-color:#BA664E"/>
	<stop  offset="0.1728" style="stop-color:#CB7B61"/>
	<stop  offset="0.2235" style="stop-color:#D7896D"/>
	<stop  offset="0.2775" style="stop-color:#DA8D71"/>
	<stop  offset="0.5134" style="stop-color:#DCA390"/>
	<stop  offset="0.8001" style="stop-color:#E5AE65"/>
	<stop  offset="1" style="stop-color:#781912"/>
</linearGradient>
<path style="fill:url(#SVGID_00000089543275564238726640000002511233112118868895_);" d="M287.5,292.2c-0.4,0.1-0.8,0.2-1.3,0.3
	c-0.1,0-0.2,0-0.3,0.1c-0.7,0.2-1.5,0.4-2.2,0.5c-1.2,0.3-2.4,0.5-3.6,0.7c-1.5,0.3-3,0.5-4.5,0.8c-0.2,0-0.5,0.1-0.8,0.1
	c-3.7,0.5-7.3,0.8-11,0.9c-27.1,0.9-54.5-8.7-75.6-28.7c-4.5-4.3-13.4-6.9-20.8-7.7c4.4-0.3,9.4-1.3,13.8-2.9c2.8,1.2,5.3,2.7,7,4.4
	c10.6,10.4,22.9,18.1,36,23.1c13.3,5.1,27.4,7.4,41.5,6.9c2.3-0.1,4.7-0.2,7-0.5l0,0c1,0.2,2,0.4,3.1,0.6c3.2,0.6,6.6,1,9.9,1.2
	C286.3,292.1,286.9,292.2,287.5,292.2z"/>
<g>
	<path class="st4" d="M306.4,189.4c-0.1,0.1-0.2,0.2-0.2,0.2C306.2,189.5,306.3,189.5,306.4,189.4L306.4,189.4z"/>
</g>
<path class="st0" d="M224.9,211.3c-11.7-29.6-7.7-63.9,23.8-66.3c27.2-2.1,41.2,11.3,43.5,22.9c1.8,9.3,2.5,20-2.3,26.9
	c3.2,4.4,9.3,27.1-16.1,21.4c7,2.5,11.9,6,18.1,7.1s8.2,1,8-3.5c-0.3-4.9-3.2-12.5-3.2-12.5c-2.6-1.8-5.1-11.7,4.1-13.8
	c8-1.9,11.4,5.1,10.6,10.2c2.3,6.5,3.5,18.9,3.4,24.6c-0.2,8.5-0.9,10-11.4,11.4c-6.2,0.9-13.9,1.2-24.8-2c21,7.4,33.2,5.3,35.7-0.2
	c3.8-8.6,0.9-41.3,18.3-47.7c17-6.3,34.6,1.7,35.2,26.9c0.8,33-9.7,33.4-11.9,34.7c-1.7,32.3-60,46.1-96.8,30.4
	C232.7,270.6,215,253.2,224.9,211.3z"/>
<g>
	
		<linearGradient id="SVGID_00000088849348315254923510000000793142412159597990_" gradientUnits="userSpaceOnUse" x1="338.3828" y1="-142.8908" x2="365.8051" y2="-125.0825" gradientTransform="matrix(1 0 0 1 0 362)">
		<stop  offset="0" style="stop-color:#791913"/>
		<stop  offset="2.721144e-02" style="stop-color:#892D21"/>
		<stop  offset="7.476132e-02" style="stop-color:#A34B37"/>
		<stop  offset="0.1234" style="stop-color:#BA664E"/>
		<stop  offset="0.1728" style="stop-color:#CB7B61"/>
		<stop  offset="0.2235" style="stop-color:#D7896D"/>
		<stop  offset="0.2775" style="stop-color:#DA8D71"/>
		<stop  offset="0.5134" style="stop-color:#DCA390"/>
		<stop  offset="0.8001" style="stop-color:#E5AE65"/>
		<stop  offset="1" style="stop-color:#781912"/>
	</linearGradient>
	<path style="fill:url(#SVGID_00000088849348315254923510000000793142412159597990_);" d="M348,204.3c2,0.7,3.5,2.4,4.5,4.2
		c1.1,1.8,1.8,3.8,2.4,5.8c1.2,4,1.7,8.1,2.1,12.3c0.3,4.1,0.4,8.3,0.3,12.4c-0.1,4.1-0.4,8.3-0.9,12.4l-1.2-0.1
		c0.5-4.1,0.9-8.2,1.1-12.3s0.2-8.2-0.1-12.3c-0.3-4.1-0.8-8.2-1.8-12.2c-0.6-2-1.2-3.9-2.2-5.7s-2.4-3.4-4.3-4.1L348,204.3z"/>
</g>
<g>
	<path class="st6" d="M306.4,189.4c-0.1,0.1-0.2,0.2-0.2,0.2C306.2,189.5,306.3,189.5,306.4,189.4L306.4,189.4z"/>
</g>
<linearGradient id="SVGID_00000014592443285190276100000014619095658400173715_" gradientUnits="userSpaceOnUse" x1="162.1473" y1="-117.249" x2="387.0676" y2="-11.0365" gradientTransform="matrix(1 0 0 1 0 362)">
	<stop  offset="0" style="stop-color:#791913"/>
	<stop  offset="2.721144e-02" style="stop-color:#892D21"/>
	<stop  offset="7.476132e-02" style="stop-color:#A34B37"/>
	<stop  offset="0.1234" style="stop-color:#BA664E"/>
	<stop  offset="0.1728" style="stop-color:#CB7B61"/>
	<stop  offset="0.2235" style="stop-color:#D7896D"/>
	<stop  offset="0.2775" style="stop-color:#DA8D71"/>
	<stop  offset="0.5134" style="stop-color:#DCA390"/>
	<stop  offset="0.8001" style="stop-color:#E5AE65"/>
	<stop  offset="1" style="stop-color:#781912"/>
</linearGradient>
<path style="fill:url(#SVGID_00000014592443285190276100000014619095658400173715_);" d="M425.3,305.6c0,9.2-59.4,16.6-132.7,16.6
	s-132.7-7.5-132.7-16.6c0-0.2,0-0.4,0.1-0.6c2.5,8.3,60.9,15,132.7,15s130.2-6.7,132.7-15C425.2,305.2,425.3,305.4,425.3,305.6z"/>
<linearGradient id="SVGID_00000035502643912407888030000017930331431689030804_" gradientUnits="userSpaceOnUse" x1="168.7992" y1="-131.3354" x2="393.7196" y2="-25.123" gradientTransform="matrix(1 0 0 1 0 362)">
	<stop  offset="0" style="stop-color:#791913"/>
	<stop  offset="2.721144e-02" style="stop-color:#892D21"/>
	<stop  offset="7.476132e-02" style="stop-color:#A34B37"/>
	<stop  offset="0.1234" style="stop-color:#BA664E"/>
	<stop  offset="0.1728" style="stop-color:#CB7B61"/>
	<stop  offset="0.2235" style="stop-color:#D7896D"/>
	<stop  offset="0.2775" style="stop-color:#DA8D71"/>
	<stop  offset="0.5134" style="stop-color:#DCA390"/>
	<stop  offset="0.8001" style="stop-color:#E5AE65"/>
	<stop  offset="1" style="stop-color:#781912"/>
</linearGradient>
<path style="fill:url(#SVGID_00000035502643912407888030000017930331431689030804_);" d="M418.1,289.4c0,13.3-55.9,24.1-124.9,24.1
	s-124.9-10.8-124.9-24.1c0-4.9,7.7-9.6,21-13.4c-11.1,3.4-17.5,7.3-17.5,11.5c0,12.3,54.4,22.3,121.4,22.3
	c67.1,0,121.4-10,121.4-22.3c0-4.2-6.4-8.2-17.5-11.5C410.4,279.9,418.1,284.5,418.1,289.4z"/>
<linearGradient id="SVGID_00000136390256695613181840000012577361074852724361_" gradientUnits="userSpaceOnUse" x1="95.9939" y1="-161.35" x2="467.1631" y2="-161.35" gradientTransform="matrix(1 0 0 1 0 362)">
	<stop  offset="0" style="stop-color:#791913"/>
	<stop  offset="2.721144e-02" style="stop-color:#892D21"/>
	<stop  offset="7.476132e-02" style="stop-color:#A34B37"/>
	<stop  offset="0.1234" style="stop-color:#BA664E"/>
	<stop  offset="0.1728" style="stop-color:#CB7B61"/>
	<stop  offset="0.2235" style="stop-color:#D7896D"/>
	<stop  offset="0.2775" style="stop-color:#DA8D71"/>
	<stop  offset="0.5134" style="stop-color:#DCA390"/>
	<stop  offset="0.8001" style="stop-color:#E5AE65"/>
	<stop  offset="1" style="stop-color:#781912"/>
</linearGradient>
<path style="fill:url(#SVGID_00000136390256695613181840000012577361074852724361_);" d="M440.2,322.3c5.3-13,9.1-26.6,11.2-40.4
	c2.2-13.8,2.4-27.9,1.1-41.7c-0.6-6.9-1.7-13.8-3.1-20.6c-1.6-6.8-3.3-13.5-5.7-20c-0.6-1.6-1.1-3.3-1.8-4.9l-2-4.8
	c-0.3-0.8-0.6-1.6-1-2.4l-1.1-2.4l-2.2-4.7c-3.2-6.2-6.5-12.3-10.3-18c-3.7-5.8-8-11.3-12.4-16.6l-3.4-3.9c-0.6-0.6-1.1-1.3-1.7-1.9
	l-1.8-1.9l-3.5-3.9l-3.8-3.6c-10.1-9.5-21.4-17.5-33.5-24.3c-1.5-0.9-3-1.6-4.6-2.4l-4.6-2.3l-4.7-2.1l-2.4-1.1l-2.4-1l-4.8-1.9
	c-1.6-0.6-3.3-1.1-4.9-1.7c-3.2-1.2-6.6-2-9.9-3c-1.6-0.5-3.3-0.8-5-1.2c-1.7-0.4-3.4-0.8-5-1.1l-5.1-0.9l-2.5-0.5
	c-0.9-0.1-1.7-0.2-2.6-0.3l-5.1-0.6c-1.7-0.2-3.4-0.3-5.2-0.4c-1.7-0.1-3.4-0.3-5.2-0.3l-5.2-0.1l-2.6-0.1l-2.6,0.1l-5.2,0.1
	c-1.7,0-3.4,0.2-5.2,0.3c-1.7,0.1-3.4,0.2-5.2,0.4l-5.1,0.6l-2.6,0.3l-2.5,0.5l-5.1,0.9c-1.7,0.3-3.4,0.8-5,1.1
	c-6.7,1.5-13.3,3.6-19.8,5.9l-4.8,1.9l-2.4,0.9l-2.4,1.1l-4.7,2.1c-1.6,0.7-3.1,1.5-4.6,2.3c-24.7,12.5-46,31.3-61.9,53.9
	c-8,11.3-14.4,23.7-19.5,36.6c-5,12.9-8.3,26.5-10.1,40.3c-0.3,1.7-0.4,3.5-0.6,5.2s-0.3,3.5-0.5,5.2l-0.2,5.2
	c-0.1,1.7-0.2,3.5-0.1,5.2c0,7,0.4,14,1.2,20.9c0.8,6.9,2.1,13.8,3.7,20.6s3.7,13.5,6.2,20.1c-2.7-6.5-5.1-13.1-7-19.9
	s-3.4-13.7-4.4-20.7c-1.1-7-1.7-14-1.9-21.1c-0.1-1.8-0.1-3.5,0-5.3v-5.3c0.1-1.8,0.2-3.5,0.3-5.3c0.1-1.8,0.2-3.5,0.4-5.3
	c1.4-14.1,4.5-28,9.3-41.4c1.3-3.3,2.4-6.7,3.9-9.9l2.2-4.9l2.4-4.8l1.2-2.4c0.4-0.8,0.9-1.6,1.3-2.3l2.6-4.6c0.9-1.5,1.9-3,2.8-4.5
	c1-1.5,1.9-3,2.9-4.5c8-11.7,17.4-22.6,28.1-32l4-3.5c1.4-1.1,2.8-2.2,4.2-3.3c2.7-2.3,5.7-4.3,8.6-6.4c1.4-1,3-2,4.5-2.9l2.2-1.5
	l1.1-0.7l1.2-0.7c3.1-1.8,6.1-3.7,9.3-5.2c1.6-0.8,3.2-1.7,4.8-2.4l4.9-2.2l2.4-1.1l2.5-1l5-2c6.7-2.4,13.5-4.6,20.5-6.1
	c1.7-0.4,3.5-0.8,5.2-1.2l5.3-1l2.6-0.5l2.7-0.3l5.3-0.7c1.8-0.2,3.6-0.3,5.3-0.5c1.8-0.1,3.6-0.3,5.3-0.4l5.4-0.1l2.7-0.1l2.7,0.1
	l5.4,0.1c1.8,0.1,3.6,0.3,5.3,0.4c1.8,0.2,3.6,0.2,5.3,0.5l5.3,0.7c0.9,0.1,1.8,0.2,2.7,0.4l2.6,0.5l5.3,1c1.7,0.4,3.5,0.8,5.2,1.2
	s3.5,0.8,5.2,1.3c3.4,1,6.9,1.9,10.2,3.1c1.7,0.6,3.4,1.1,5.1,1.8l5,2l2.5,1l2.4,1.1l4.9,2.2c1.6,0.8,3.2,1.6,4.8,2.4
	c1.6,0.8,3.2,1.6,4.7,2.5c12.4,7.1,24,15.5,34.3,25.4l3.8,3.7l3.7,3.9l1.8,1.9c0.6,0.7,1.2,1.3,1.8,2l3.5,4.1
	c4.4,5.6,8.7,11.3,12.5,17.3c3.9,6,7.2,12.3,10.3,18.7c2.9,6.5,5.7,13,7.8,19.8c2.3,6.7,3.9,13.7,5.3,20.6c1.2,7,2.3,14,2.6,21.1
	c0.9,14.1,0.1,28.3-2.5,42.2c-1.3,6.9-3,13.8-5.1,20.5C445.7,309.3,443.1,315.9,440.2,322.3z"/>
<g>
	
		<linearGradient id="SVGID_00000070104097012148377190000007262534443077302460_" gradientUnits="userSpaceOnUse" x1="95.9939" y1="7.6999" x2="467.1631" y2="7.6999" gradientTransform="matrix(1 0 0 1 0 362)">
		<stop  offset="0" style="stop-color:#791913"/>
		<stop  offset="2.721144e-02" style="stop-color:#892D21"/>
		<stop  offset="7.476132e-02" style="stop-color:#A34B37"/>
		<stop  offset="0.1234" style="stop-color:#BA664E"/>
		<stop  offset="0.1728" style="stop-color:#CB7B61"/>
		<stop  offset="0.2235" style="stop-color:#D7896D"/>
		<stop  offset="0.2775" style="stop-color:#DA8D71"/>
		<stop  offset="0.5134" style="stop-color:#DCA390"/>
		<stop  offset="0.8001" style="stop-color:#E5AE65"/>
		<stop  offset="1" style="stop-color:#781912"/>
	</linearGradient>
	<path style="fill:url(#SVGID_00000070104097012148377190000007262534443077302460_);" d="M384.1,374c-0.3,1.3-0.4,2.6-0.3,3.9
		s0.5,2.4,1,3.4c0.6,1,1.6,1.8,2.9,2.4c1.2,0.5,2.5,0.7,3.7,0.5s2.5-0.6,3.7-1.3c1.2-0.7,2.4-1.6,3.5-2.6c1-1,1.9-2,2.8-3.1
		c-0.1,0.5-0.3,1-0.4,1.5c-0.3,1.3-0.3,2.4-0.1,3.2c0.3,1,0.8,1.7,1.4,2.1s1.2,0.6,1.7,0.5c0.6,0,1-0.2,1.4-0.5s0.5-0.6,0.3-0.8
		c-0.2-0.5-0.2-1.2,0-2c0.3-0.9,0.7-1.9,1.2-3.1s1.2-2.4,1.9-3.7c0.7-1.3,1.4-2.6,2-4c0.6-1,1.4-1.9,2.2-3c0.8-1,1.6-2,2.4-2.9
		s1.5-1.6,2.2-2.1c0.7-0.6,1.2-0.9,1.6-0.9c0.7,0,1.1,0.2,1.2,0.6s0,1-0.3,1.8s-0.7,1.7-1.2,2.7s-1.1,2.2-1.7,3.4
		c-0.6,1.2-1.1,2.5-1.6,3.9s-0.8,2.7-1,4.1c-0.1,0.8-0.1,1.6,0,2.3c0.1,0.8,0.3,1.5,0.6,2.1c0.3,0.6,0.7,1.1,1.2,1.5
		s1.1,0.5,1.7,0.5c0.8,0,1.7-0.3,2.6-0.9s1.8-1.4,2.6-2.3c0.9-1,1.7-2,2.5-3.2s1.6-2.3,2.3-3.4c0.7-1.1,1.3-2.2,1.8-3.2
		s0.9-1.7,1.1-2.3l0.1-0.1c0.3-0.7,0.7-1.4,1.1-2.2c0.4-0.8,0.8-1.5,1.1-2.1c1.1,2.2,1.8,4.2,2.1,6c0.4,1.8,0.5,3.3,0.4,4.6
		c-0.1,1.3-0.3,2.5-0.7,3.4c-0.4,0.9-0.9,1.7-1.4,2.3c-0.5,0.6-1,1-1.6,1.3c-0.5,0.3-0.9,0.4-1.2,0.4c-0.7,0-1.3-0.3-1.8-0.7
		c-0.4-0.5-0.7-1-0.8-1.7c-0.1-0.6-0.1-1.3,0.1-2s0.5-1.3,0.9-1.8c0.1,0.3,0.3,0.6,0.6,0.7c0.3,0.2,0.6,0.3,0.9,0.3
		c0.4,0,0.8-0.2,1.1-0.5c0.3-0.3,0.5-0.7,0.5-1.1s-0.2-0.7-0.5-1s-0.7-0.4-1-0.5c-0.4-0.1-0.8,0-1.4,0.3c-0.5,0.2-1.2,0.7-1.8,1.4
		c-0.5,0.5-0.8,1.2-1,2.2s-0.1,1.9,0.1,2.9s0.7,1.8,1.5,2.5c0.7,0.7,1.8,1,3.1,1c0.5,0,1.1-0.1,1.7-0.3c0.7-0.2,1.4-0.5,2.1-0.9
		l0.1-0.1h0.1c1.3-0.5,2.4-1.2,3.4-2s2-1.7,2.9-2.8c1.3-1.5,2.5-2.9,3.6-4.4s2-3,2.8-4.7c0.1-0.2,0.1-0.4,0.1-0.7
		c-0.1-0.2-0.2-0.4-0.4-0.6c-0.3-0.2-0.6-0.2-0.8-0.1c-0.2,0.1-0.4,0.2-0.5,0.5c-0.6,1.1-1.3,2.3-2.2,3.6c-0.9,1.3-1.9,2.5-3,3.8
		c0.2-1,0.3-2,0.3-3.1s-0.3-2.3-0.7-3.5c-0.4-1.3-1-2.6-1.8-4s-1.9-2.9-3.2-4.4l0.2-0.3c0.4-0.7,0.8-1.4,1.1-2.1
		c0.3-0.7,0.4-1.3,0.4-1.9s-0.2-1.1-0.6-1.4c-0.4-0.4-1-0.6-1.9-0.6c-0.8,0-1.5,0.2-2,0.5s-0.9,0.7-1.2,1.2
		c-0.3,0.5-0.5,0.9-0.6,1.4s-0.2,0.8-0.2,1.1c0,0.7,0.1,1.4,0.3,2c0.2,0.6,0.5,1.2,0.9,1.8c-0.2,0.5-0.5,0.9-0.7,1.4
		c-0.2,0.4-0.4,0.8-0.7,1.3c-0.2,0.4-0.5,0.8-0.7,1.3s-0.5,1-0.8,1.6c-0.1,0.1-0.1,0.2-0.1,0.3c-0.2,0.6-0.5,1.2-1,2.1
		s-1,1.8-1.6,2.8s-1.3,2-2,3s-1.4,1.9-2,2.7c-0.6,0.8-1.2,1.4-1.8,1.9c-0.5,0.5-1,0.7-1.3,0.7c-0.7,0-1-0.2-1.1-0.7s0.1-1.1,0.4-2
		c0.3-0.8,0.7-1.8,1.3-2.9c0.6-1.1,1.1-2.3,1.7-3.5s1.1-2.5,1.5-3.8s0.7-2.5,0.8-3.7c0.2-1.9,0-3.4-0.6-4.6s-1.6-1.8-3-1.7
		c-0.6,0-1.2,0.2-1.9,0.5c-0.6,0.3-1.3,0.7-2,1.2s-1.4,1.1-2,1.8c-0.7,0.7-1.3,1.4-2,2.1c0.1-0.6,0.2-1.1,0.3-1.7c0-0.5,0-1-0.2-1.5
		c-0.3-1-0.8-1.7-1.5-2s-1.4-0.5-2.1-0.5s-1.3,0.2-1.7,0.5c-0.5,0.3-0.6,0.5-0.3,0.7c0.3,0.3,0.3,0.9,0,1.8c-0.3,1-0.7,2.1-1.3,3.4
		c-0.4,0.9-0.8,1.9-1.3,2.9c0,0,0,0.1-0.1,0.1c-0.3,0.9-0.8,1.8-1.4,2.9s-1.3,2.1-2,3.1c-0.8,1.1-1.6,2.1-2.5,3
		c-0.9,1-1.8,1.8-2.7,2.5c-0.9,0.7-1.8,1.3-2.7,1.6c-0.9,0.4-1.7,0.5-2.4,0.3c-0.5-0.1-0.9-0.4-1.1-0.9c-0.3-0.5-0.4-1.1-0.5-1.8
		c-0.1-0.7-0.1-1.5,0.1-2.4c0.1-0.9,0.3-1.7,0.5-2.6c1.8-0.5,3.4-1.2,4.8-2.1s2.6-2,3.7-3.1c1-1.1,1.8-2.3,2.3-3.5s0.8-2.3,0.8-3.3
		s-0.3-1.8-0.9-2.4s-1.5-0.9-2.8-0.9c-1.2,0-2.4,0.2-3.6,0.7c-1.2,0.4-2.3,1.1-3.5,2c-1.1,0.9-2.2,2.1-3.2,3.6
		c-1,1.4-1.9,3.2-2.7,5.3C384.8,371.4,384.4,372.6,384.1,374z M391.4,371c1.4-3.2,2.8-5.7,4.2-7.5c1.4-1.8,2.6-2.7,3.5-2.7
		c0.6,0,0.9,0.5,0.9,1.4s-0.3,1.9-1,3.1c-0.6,1.2-1.6,2.4-2.9,3.7c-1.3,1.2-3,2.2-5,2.9C391.1,371.7,391.2,371.4,391.4,371z"/>
	
		<linearGradient id="SVGID_00000044868021034467391260000001737934993248025476_" gradientUnits="userSpaceOnUse" x1="95.9939" y1="-8.65" x2="467.1631" y2="-8.65" gradientTransform="matrix(1 0 0 1 0 362)">
		<stop  offset="0" style="stop-color:#791913"/>
		<stop  offset="2.721144e-02" style="stop-color:#892D21"/>
		<stop  offset="7.476132e-02" style="stop-color:#A34B37"/>
		<stop  offset="0.1234" style="stop-color:#BA664E"/>
		<stop  offset="0.1728" style="stop-color:#CB7B61"/>
		<stop  offset="0.2235" style="stop-color:#D7896D"/>
		<stop  offset="0.2775" style="stop-color:#DA8D71"/>
		<stop  offset="0.5134" style="stop-color:#DCA390"/>
		<stop  offset="0.8001" style="stop-color:#E5AE65"/>
		<stop  offset="1" style="stop-color:#781912"/>
	</linearGradient>
	<path style="fill:url(#SVGID_00000044868021034467391260000001737934993248025476_);" d="M145.2,365.6c1.6-0.6,2.9-1.5,3.9-2.7
		s1.8-2.6,2.3-4.3s0.7-3.7,0.7-5.9c0-4.2-1.1-7.4-3.3-9.4c-2.2-2.1-5.3-3.1-9.4-3.1h-9v26.3h9C141.7,366.5,143.6,366.2,145.2,365.6z
		 M134,343.2h5.9c1.6,0,3,0.2,4.1,0.7s2,1.1,2.7,2s1.2,1.9,1.5,3.2c0.3,1.2,0.5,2.6,0.5,4.2s-0.2,3-0.5,4.2
		c-0.3,1.1-0.8,2.1-1.3,2.9s-1.1,1.4-1.8,1.8s-1.3,0.8-2,1s-1.3,0.4-1.9,0.4c-0.6,0.1-1.1,0.1-1.5,0.1h-5.8v-20.5L134,343.2
		L134,343.2z"/>
	
		<linearGradient id="SVGID_00000141415763437981204810000017294082101422627255_" gradientUnits="userSpaceOnUse" x1="95.9939" y1="-8.6" x2="467.1631" y2="-8.6" gradientTransform="matrix(1 0 0 1 0 362)">
		<stop  offset="0" style="stop-color:#791913"/>
		<stop  offset="2.721144e-02" style="stop-color:#892D21"/>
		<stop  offset="7.476132e-02" style="stop-color:#A34B37"/>
		<stop  offset="0.1234" style="stop-color:#BA664E"/>
		<stop  offset="0.1728" style="stop-color:#CB7B61"/>
		<stop  offset="0.2235" style="stop-color:#D7896D"/>
		<stop  offset="0.2775" style="stop-color:#DA8D71"/>
		<stop  offset="0.5134" style="stop-color:#DCA390"/>
		<stop  offset="0.8001" style="stop-color:#E5AE65"/>
		<stop  offset="1" style="stop-color:#781912"/>
	</linearGradient>
	<path style="fill:url(#SVGID_00000141415763437981204810000017294082101422627255_);" d="M158.1,363c1.1,1.3,2.4,2.3,3.9,3.1
		c1.6,0.8,3.4,1.1,5.5,1.1s3.9-0.4,5.5-1.1c1.6-0.8,2.9-1.8,3.9-3.1c1.1-1.3,1.8-2.7,2.4-4.4c0.5-1.7,0.8-3.4,0.8-5.2
		c0-1.8-0.3-3.5-0.8-5.2s-1.3-3.1-2.4-4.4s-2.4-2.3-3.9-3.1c-1.6-0.8-3.4-1.1-5.5-1.1s-3.9,0.4-5.5,1.1c-1.6,0.8-2.9,1.8-3.9,3.1
		c-1.1,1.3-1.9,2.7-2.4,4.4c-0.5,1.7-0.8,3.4-0.8,5.2c0,1.8,0.3,3.5,0.8,5.2C156.3,360.2,157.1,361.7,158.1,363z M159,349.4
		c0.3-1.3,0.9-2.5,1.6-3.5c0.7-1,1.7-1.9,2.8-2.5c1.2-0.6,2.5-0.9,4.1-0.9s3,0.3,4.1,0.9c1.2,0.6,2.1,1.5,2.8,2.5s1.3,2.2,1.6,3.5
		s0.5,2.6,0.5,3.9s-0.2,2.6-0.5,3.9s-0.9,2.5-1.6,3.5c-0.7,1-1.7,1.9-2.8,2.5c-1.2,0.6-2.5,0.9-4.1,0.9s-3-0.3-4.1-0.9
		c-1.2-0.6-2.1-1.5-2.8-2.5s-1.3-2.2-1.6-3.5s-0.5-2.6-0.5-3.9S158.6,350.7,159,349.4z"/>
	
		<linearGradient id="SVGID_00000005963727029514981650000013031384068647464370_" gradientUnits="userSpaceOnUse" x1="95.9939" y1="-8.35" x2="467.1631" y2="-8.35" gradientTransform="matrix(1 0 0 1 0 362)">
		<stop  offset="0" style="stop-color:#791913"/>
		<stop  offset="2.721144e-02" style="stop-color:#892D21"/>
		<stop  offset="7.476132e-02" style="stop-color:#A34B37"/>
		<stop  offset="0.1234" style="stop-color:#BA664E"/>
		<stop  offset="0.1728" style="stop-color:#CB7B61"/>
		<stop  offset="0.2235" style="stop-color:#D7896D"/>
		<stop  offset="0.2775" style="stop-color:#DA8D71"/>
		<stop  offset="0.5134" style="stop-color:#DCA390"/>
		<stop  offset="0.8001" style="stop-color:#E5AE65"/>
		<stop  offset="1" style="stop-color:#781912"/>
	</linearGradient>
	<path style="fill:url(#SVGID_00000005963727029514981650000013031384068647464370_);" d="M187.2,364.7c0.9,0.8,2.1,1.5,3.4,1.8
		c1.3,0.4,2.9,0.6,4.6,0.6c3.3,0,5.8-0.9,7.7-2.6c1.8-1.7,2.7-4.2,2.7-7.6v-16.7h-3.5V357c0,2.3-0.6,4.1-1.8,5.3
		c-1.2,1.2-2.9,1.8-5.1,1.8c-2.3,0-4.1-0.6-5.4-1.8c-1.3-1.2-1.9-3-1.9-5.3v-16.8h-3.5V357c0,1.7,0.2,3.3,0.7,4.5
		C185.6,362.7,186.2,363.9,187.2,364.7z"/>
	
		<linearGradient id="SVGID_00000013903718666236972160000012619185448381910702_" gradientUnits="userSpaceOnUse" x1="95.9939" y1="-8.6" x2="467.1631" y2="-8.6" gradientTransform="matrix(1 0 0 1 0 362)">
		<stop  offset="0" style="stop-color:#791913"/>
		<stop  offset="2.721144e-02" style="stop-color:#892D21"/>
		<stop  offset="7.476132e-02" style="stop-color:#A34B37"/>
		<stop  offset="0.1234" style="stop-color:#BA664E"/>
		<stop  offset="0.1728" style="stop-color:#CB7B61"/>
		<stop  offset="0.2235" style="stop-color:#D7896D"/>
		<stop  offset="0.2775" style="stop-color:#DA8D71"/>
		<stop  offset="0.5134" style="stop-color:#DCA390"/>
		<stop  offset="0.8001" style="stop-color:#E5AE65"/>
		<stop  offset="1" style="stop-color:#781912"/>
	</linearGradient>
	<path style="fill:url(#SVGID_00000013903718666236972160000012619185448381910702_);" d="M212.8,363.2c1,1.2,2.3,2.2,3.8,2.9
		c1.5,0.7,3.3,1.1,5.3,1.1c3.3,0,6-0.9,7.9-2.8s3.1-4.4,3.4-7.7h-3.5c-0.1,1.1-0.3,2.1-0.7,3s-0.9,1.7-1.5,2.4
		c-0.7,0.7-1.4,1.2-2.3,1.6c-0.9,0.4-1.9,0.6-3.1,0.6c-1.6,0-2.9-0.3-4.1-0.9c-1.1-0.6-2.1-1.4-2.8-2.4s-1.3-2.2-1.6-3.5
		s-0.5-2.8-0.5-4.3c0-1.4,0.2-2.7,0.5-4s0.9-2.4,1.6-3.4c0.7-1,1.6-1.8,2.8-2.4c1.1-0.6,2.5-0.9,4-0.9c0.9,0,1.8,0.1,2.6,0.3
		c0.8,0.2,1.5,0.6,2.2,1.1s1.2,1.1,1.6,1.8c0.4,0.7,0.8,1.5,1,2.5h3.5c-0.2-1.4-0.6-2.6-1.3-3.7c-0.6-1.1-1.4-2-2.4-2.7
		s-2.1-1.3-3.3-1.6c-1.2-0.4-2.5-0.6-3.9-0.6c-2,0-3.8,0.4-5.4,1.1c-1.5,0.7-2.8,1.7-3.9,3c-1,1.3-1.8,2.7-2.4,4.4
		c-0.5,1.7-0.8,3.5-0.8,5.4s0.3,3.7,0.8,5.4C211.1,360.5,211.8,362,212.8,363.2z"/>
	
		<linearGradient id="SVGID_00000085229586789609713800000005929025111222845627_" gradientUnits="userSpaceOnUse" x1="95.9939" y1="-8.65" x2="467.1631" y2="-8.65" gradientTransform="matrix(1 0 0 1 0 362)">
		<stop  offset="0" style="stop-color:#791913"/>
		<stop  offset="2.721144e-02" style="stop-color:#892D21"/>
		<stop  offset="7.476132e-02" style="stop-color:#A34B37"/>
		<stop  offset="0.1234" style="stop-color:#BA664E"/>
		<stop  offset="0.1728" style="stop-color:#CB7B61"/>
		<stop  offset="0.2235" style="stop-color:#D7896D"/>
		<stop  offset="0.2775" style="stop-color:#DA8D71"/>
		<stop  offset="0.5134" style="stop-color:#DCA390"/>
		<stop  offset="0.8001" style="stop-color:#E5AE65"/>
		<stop  offset="1" style="stop-color:#781912"/>
	</linearGradient>
	<polygon style="fill:url(#SVGID_00000085229586789609713800000005929025111222845627_);" points="256,363.6 241.2,363.6 
		241.2,354.5 254.9,354.5 254.9,351.5 241.2,351.5 241.2,343.2 255.9,343.2 255.9,340.2 237.7,340.2 237.7,366.5 256,366.5 	"/>
	
		<linearGradient id="SVGID_00000106134324938701056510000007084944388710062749_" gradientUnits="userSpaceOnUse" x1="95.9939" y1="-8.65" x2="467.1631" y2="-8.65" gradientTransform="matrix(1 0 0 1 0 362)">
		<stop  offset="0" style="stop-color:#791913"/>
		<stop  offset="2.721144e-02" style="stop-color:#892D21"/>
		<stop  offset="7.476132e-02" style="stop-color:#A34B37"/>
		<stop  offset="0.1234" style="stop-color:#BA664E"/>
		<stop  offset="0.1728" style="stop-color:#CB7B61"/>
		<stop  offset="0.2235" style="stop-color:#D7896D"/>
		<stop  offset="0.2775" style="stop-color:#DA8D71"/>
		<stop  offset="0.5134" style="stop-color:#DCA390"/>
		<stop  offset="0.8001" style="stop-color:#E5AE65"/>
		<stop  offset="1" style="stop-color:#781912"/>
	</linearGradient>
	<polygon style="fill:url(#SVGID_00000106134324938701056510000007084944388710062749_);" points="273.8,345.4 273.9,345.4 
		287.6,366.5 291.4,366.5 291.4,340.2 288.1,340.2 288.1,361.6 288.1,361.6 274.2,340.2 270.5,340.2 270.5,366.5 273.8,366.5 	"/>
	
		<linearGradient id="SVGID_00000160878944385309155930000016725463061089439653_" gradientUnits="userSpaceOnUse" x1="95.9939" y1="-8.65" x2="467.1631" y2="-8.65" gradientTransform="matrix(1 0 0 1 0 362)">
		<stop  offset="0" style="stop-color:#791913"/>
		<stop  offset="2.721144e-02" style="stop-color:#892D21"/>
		<stop  offset="7.476132e-02" style="stop-color:#A34B37"/>
		<stop  offset="0.1234" style="stop-color:#BA664E"/>
		<stop  offset="0.1728" style="stop-color:#CB7B61"/>
		<stop  offset="0.2235" style="stop-color:#D7896D"/>
		<stop  offset="0.2775" style="stop-color:#DA8D71"/>
		<stop  offset="0.5134" style="stop-color:#DCA390"/>
		<stop  offset="0.8001" style="stop-color:#E5AE65"/>
		<stop  offset="1" style="stop-color:#781912"/>
	</linearGradient>
	<path style="fill:url(#SVGID_00000160878944385309155930000016725463061089439653_);" d="M300.6,358.6h11.1l2.9,7.9h3.9l-10.3-26.3
		h-3.9L294,366.5h3.6L300.6,358.6z M306.1,343.4L306.1,343.4l4.5,12.3h-8.9L306.1,343.4z"/>
	
		<linearGradient id="SVGID_00000087405342958841319770000005845044897607019137_" gradientUnits="userSpaceOnUse" x1="95.9939" y1="-8.65" x2="467.1631" y2="-8.65" gradientTransform="matrix(1 0 0 1 0 362)">
		<stop  offset="0" style="stop-color:#791913"/>
		<stop  offset="2.721144e-02" style="stop-color:#892D21"/>
		<stop  offset="7.476132e-02" style="stop-color:#A34B37"/>
		<stop  offset="0.1234" style="stop-color:#BA664E"/>
		<stop  offset="0.1728" style="stop-color:#CB7B61"/>
		<stop  offset="0.2235" style="stop-color:#D7896D"/>
		<stop  offset="0.2775" style="stop-color:#DA8D71"/>
		<stop  offset="0.5134" style="stop-color:#DCA390"/>
		<stop  offset="0.8001" style="stop-color:#E5AE65"/>
		<stop  offset="1" style="stop-color:#781912"/>
	</linearGradient>
	
		<rect x="321.2" y="340.2" style="fill:url(#SVGID_00000087405342958841319770000005845044897607019137_);" width="3.5" height="26.3"/>
	
		<linearGradient id="SVGID_00000065062536082672679470000007320111417903511485_" gradientUnits="userSpaceOnUse" x1="95.9939" y1="-26.85" x2="467.1631" y2="-26.85" gradientTransform="matrix(1 0 0 1 0 362)">
		<stop  offset="0" style="stop-color:#791913"/>
		<stop  offset="2.721144e-02" style="stop-color:#892D21"/>
		<stop  offset="7.476132e-02" style="stop-color:#A34B37"/>
		<stop  offset="0.1234" style="stop-color:#BA664E"/>
		<stop  offset="0.1728" style="stop-color:#CB7B61"/>
		<stop  offset="0.2235" style="stop-color:#D7896D"/>
		<stop  offset="0.2775" style="stop-color:#DA8D71"/>
		<stop  offset="0.5134" style="stop-color:#DCA390"/>
		<stop  offset="0.8001" style="stop-color:#E5AE65"/>
		<stop  offset="1" style="stop-color:#781912"/>
	</linearGradient>
	<polygon style="fill:url(#SVGID_00000065062536082672679470000007320111417903511485_);" points="323,334.3 325.5,337.8 
		328.6,337.8 324.8,332.5 321.4,332.5 317.6,337.8 320.4,337.8 	"/>
	
		<linearGradient id="SVGID_00000019651178871691359530000010740451322807013817_" gradientUnits="userSpaceOnUse" x1="95.9939" y1="-8.65" x2="467.1631" y2="-8.65" gradientTransform="matrix(1 0 0 1 0 362)">
		<stop  offset="0" style="stop-color:#791913"/>
		<stop  offset="2.721144e-02" style="stop-color:#892D21"/>
		<stop  offset="7.476132e-02" style="stop-color:#A34B37"/>
		<stop  offset="0.1234" style="stop-color:#BA664E"/>
		<stop  offset="0.1728" style="stop-color:#CB7B61"/>
		<stop  offset="0.2235" style="stop-color:#D7896D"/>
		<stop  offset="0.2775" style="stop-color:#DA8D71"/>
		<stop  offset="0.5134" style="stop-color:#DCA390"/>
		<stop  offset="0.8001" style="stop-color:#E5AE65"/>
		<stop  offset="1" style="stop-color:#781912"/>
	</linearGradient>
	<polygon style="fill:url(#SVGID_00000019651178871691359530000010740451322807013817_);" points="340.1,366.5 340.1,343.2 
		348.8,343.2 348.8,340.2 327.8,340.2 327.8,343.2 336.5,343.2 336.5,366.5 	"/>
	
		<linearGradient id="SVGID_00000123431512810680477630000010809281975252115367_" gradientUnits="userSpaceOnUse" x1="95.9939" y1="7.2" x2="467.1631" y2="7.2" gradientTransform="matrix(1 0 0 1 0 362)">
		<stop  offset="0" style="stop-color:#791913"/>
		<stop  offset="2.721144e-02" style="stop-color:#892D21"/>
		<stop  offset="7.476132e-02" style="stop-color:#A34B37"/>
		<stop  offset="0.1234" style="stop-color:#BA664E"/>
		<stop  offset="0.1728" style="stop-color:#CB7B61"/>
		<stop  offset="0.2235" style="stop-color:#D7896D"/>
		<stop  offset="0.2775" style="stop-color:#DA8D71"/>
		<stop  offset="0.5134" style="stop-color:#DCA390"/>
		<stop  offset="0.8001" style="stop-color:#E5AE65"/>
		<stop  offset="1" style="stop-color:#781912"/>
	</linearGradient>
	<path style="fill:url(#SVGID_00000123431512810680477630000010809281975252115367_);" d="M449.7,393.4c1.9-1.3,3.6-3.1,4.8-5H454
		h-0.8h-1.7h-1.3h-1.7h-1.3h-1.7h-0.7h-0.5c-1.1,1.8-2.7,3.3-4.4,4.5h-63.4c0.4-0.7,0.8-1.5,1.1-2.3c1.5-4.1,1.8-8.8,0.9-14.2
		c-0.4-2.4-1-4.7-1.7-7s-1.5-4.6-2.2-6.8c-0.2-0.7-0.5-1.7-1-3.1c-0.4-1.4-0.8-3-1.2-4.7c-0.4-1.7-0.8-3.5-1.1-5.3
		c-0.3-1.8-0.5-3.5-0.5-4.9c0-1.5,0.1-2.7,0.5-3.6c0.4-1,1-1.4,1.9-1.4c1.4,0,2.7,0.5,4,1.5s2.3,2.3,3.1,4c0.7,1.6,1.1,3.5,1.1,5.6
		s-0.7,4.2-2.1,6.3c-0.4,0.6-0.3,1.1,0.3,1.5c0.5,0.4,1.3,0.7,2.2,0.9c0.9,0.2,1.8,0.2,2.7,0c0.9-0.2,1.5-0.6,1.9-1.2
		c1.1-2,1.6-4,1.4-6.2s-0.8-4.2-1.9-6.2s-2.5-3.8-4.3-5.4s-3.7-2.8-5.7-3.7c-0.8-0.4-1.8-0.6-2.8-0.8c-1-0.2-2.1-0.3-3.1-0.3
		c-1.1,0-2.1,0.1-3.1,0.3c-1,0.2-1.8,0.5-2.5,1s-1.4,1.1-2,1.8c-0.6,0.7-1.1,1.5-1.4,2.4c-0.9,1.9-1.2,4-1.1,6.4
		c0.1,2.6,0.5,5.2,1.3,7.9c0.8,2.7,1.6,5.5,2.6,8.3c0.7,2.2,1.5,4.5,2.1,6.7c0.7,2.2,1.2,4.5,1.6,6.7s0.6,4.4,0.5,6.6
		c0,2.2-0.4,4.3-1.2,6.4c-0.8,2.3-2.3,4.2-4.3,5.8c-2,1.6-4.4,2.7-7.2,3.3c-2.9,0.6-5.7,0.5-8.3-0.2c-2.6-0.7-4.8-2.1-6.5-3.9
		c-1.5-1.6-2.4-3.5-2.7-5.8c-0.3-2.3-0.1-4.7,0.8-7.2s2.1-4.5,3.8-6c1.7-1.6,3.5-2.5,5.6-2.8c0.9-0.1,1.8,0,2.7,0.4
		c0.9,0.4,1.6,1.1,2.2,2s0.9,2,0.9,3.2s-0.3,2.6-1.1,4.1c-0.4,0.7-0.2,1.2,0.5,1.7s1.5,0.8,2.5,1s2,0.1,2.9-0.1
		c1-0.2,1.6-0.7,1.8-1.5c0.8-2.3,0.8-4.4,0.1-6.1c-0.7-1.8-1.9-3.2-3.3-4.4c-1.5-1.2-3.1-2-4.9-2.5s-3.4-0.6-4.7-0.4
		c-2.6,0.4-5,1.5-7.1,3.5c-1.9,1.8-3.4,4.2-4.4,7c-1,2.7-1.3,5.5-1,8.2c0.2,1.4,0.6,2.8,1.1,4h-191c-1.7-1.2-3.3-2.7-4.4-4.5h-0.5
		h-0.7h-1.7h-1.3h-1.7h-1.4h-1.7H131h-0.5c1.3,1.9,2.9,3.7,4.8,5c-1.9,1.3-3.5,3-4.8,5h0.5h0.8h1.7h1.2h1.7h1.2h1.7h0.7h0.5
		c1.1-1.8,2.7-3.3,4.4-4.5h191.5c0.5,0.9,1.1,1.7,1.8,2.5c2.2,2.3,4.9,3.9,8.1,4.7c1.7,0.5,3.5,0.8,5.5,1s3.9,0.2,5.7,0.2
		c3.6,0,7-0.7,10.2-2c2.5-1.1,4.5-2.4,6.2-4.1c0.7-0.7,1.3-1.4,1.8-2.2l0,0h64.1c1.7,1.2,3.3,2.7,4.4,4.5h0.5h0.7h1.7h1.2h1.7h1.2
		h1.7h0.8h0.5C453.2,396.4,451.7,394.7,449.7,393.4z"/>
</g>
<linearGradient id="SVGID_00000178166305959285814300000000231903905906678427_" gradientUnits="userSpaceOnUse" x1="208.2954" y1="-178.1936" x2="356.8505" y2="-99.2054" gradientTransform="matrix(1 0 0 1 0 362)">
	<stop  offset="0" style="stop-color:#791913"/>
	<stop  offset="2.721144e-02" style="stop-color:#892D21"/>
	<stop  offset="7.476132e-02" style="stop-color:#A34B37"/>
	<stop  offset="0.1234" style="stop-color:#BA664E"/>
	<stop  offset="0.1728" style="stop-color:#CB7B61"/>
	<stop  offset="0.2235" style="stop-color:#D7896D"/>
	<stop  offset="0.2775" style="stop-color:#DA8D71"/>
	<stop  offset="0.5134" style="stop-color:#DCA390"/>
	<stop  offset="0.8001" style="stop-color:#E5AE65"/>
	<stop  offset="1" style="stop-color:#781912"/>
</linearGradient>
<path style="fill:url(#SVGID_00000178166305959285814300000000231903905906678427_);" d="M278.6,237.3c7.2,2.5,14.7,4.5,22.3,4.6
	c1.9,0,3.8-0.1,5.6-0.5c1.8-0.4,3.6-0.9,5.1-2c0.3-0.3,0.7-0.5,1-0.9c0.3-0.3,0.6-0.6,0.8-1c0.5-0.7,0.7-1.6,1-2.5
	c0.5-1.8,0.8-3.7,1-5.6c1-7.6,1.8-15.3,3.8-22.7c1.1-3.7,2.4-7.4,4.7-10.6c1.1-1.6,2.4-3.1,4-4.3c1.5-1.2,3.3-2.2,5.2-2.8
	c3.7-1.3,7.6-2,11.5-1.9s7.8,1.1,11.3,3.1c3.4,2,6.3,4.9,8.3,8.3l0.7,1.3l0.4,0.6l0.3,0.7l1.1,2.7c0.5,1.9,1.1,3.8,1.4,5.7
	c0.1,1,0.4,1.9,0.4,2.9l0.2,2.9c0.1,1,0.1,1.9,0,2.9v2.9c0,1.9-0.2,3.9-0.3,5.8c-0.1,1-0.2,1.9-0.3,2.9c-0.1,1-0.2,1.9-0.4,2.9
	c-0.6,3.8-1.5,7.6-3.2,11.1c-0.9,1.7-1.9,3.4-3.4,4.7c-0.4,0.3-0.8,0.6-1.1,0.9c-0.4,0.2-0.8,0.5-1.3,0.8c-0.8,0.5-1.8,0.7-2.6,1.1
	l0.1-0.1c-0.2,4.2-1.5,8.4-3.5,12.1s-4.9,7-8.1,9.8c-6.5,5.6-14.3,9.3-22.4,11.8c-4.1,1.3-8.2,2.2-12.4,3c-4.2,0.7-8.4,1.1-12.7,1.3
	c-8.5,0.4-17.1-0.2-25.4-2.1c-4.2-0.9-8.3-2.1-12.3-3.7c-2-0.8-3.9-1.7-5.9-2.5l-2.9-1.4c-1-0.5-1.9-0.9-2.8-1.5l-2.8-1.6
	c-0.9-0.5-1.8-1.2-2.7-1.8c-1.8-1.1-3.5-2.5-5.2-3.9c-0.9-0.6-1.6-1.5-2.4-2.2l-1.2-1.1c-0.4-0.4-0.8-0.8-1.1-1.2l-2.1-2.5l-0.5-0.6
	l-0.5-0.7l-0.9-1.4l-0.9-1.4l-0.5-0.7l-0.4-0.7l-1.5-2.9c-0.6-1-0.9-2-1.3-3c-0.4-1-0.8-2-1.1-3.1c-1.2-4.2-2.1-8.6-2.3-12.9
	l-0.2-3.3c-0.1-1.1,0-2.2,0.1-3.3c0.1-2.2,0.1-4.3,0.4-6.5l0.4-3.2l0.2-1.6c0.1-0.5,0.2-1,0.3-1.4l1.2-5.7c-0.3-0.6-0.6-1.2-0.8-1.8
	c-0.1-0.3-0.3-0.7-0.4-1.1l-0.4-1.3c-0.5-1.7-1.1-3.4-1.5-5.1c-0.9-3.4-1.6-6.9-2.1-10.4c-0.9-7-1-14.2,0.5-21.3
	c0.7-3.5,1.9-7,3.5-10.3s3.9-6.3,6.6-8.9c2.7-2.5,5.9-4.6,9.3-5.9c3.4-1.4,7-2.2,10.6-2.5c7-0.6,14.2-0.3,21.1,1.6
	c3.5,0.8,6.8,2.3,9.9,3.9c3.2,1.7,6,4,8.5,6.6c2.4,2.7,4.4,5.8,5.6,9.2c0.3,0.8,0.5,1.8,0.7,2.6c0.2,0.9,0.3,1.7,0.5,2.6
	c0.3,1.7,0.5,3.5,0.6,5.2c0.3,3.5,0.3,7-0.2,10.5s-1.6,7-3.7,10v-1.1c1,1.5,1.5,3,2,4.6s0.8,3.1,1,4.8c0.3,3.2,0,6.7-1.9,9.6
	c-0.9,1.4-2.3,2.6-3.8,3.3s-3.1,1.1-4.8,1.2c-3.2,0.3-6.4-0.2-9.5-0.9l0.3-1.1c3.5,1.2,6.7,2.9,10,4.4c1.6,0.7,3.3,1.4,5,2
	c1.7,0.5,3.4,0.8,5.2,1.1c0.9,0.1,1.8,0.2,2.6,0.2c0.8,0,1.6-0.2,2-0.7s0.5-1.3,0.4-2.2c0-0.8-0.1-1.7-0.3-2.6
	c-0.6-3.5-1.8-6.9-3.1-10.2l0.3,0.4c-1.5-1.2-2.1-2.7-2.5-4.3s-0.5-3.2-0.1-4.8s1.2-3.2,2.5-4.3s2.8-1.7,4.4-2.2
	c1.6-0.4,3.2-0.5,4.9-0.2s3.2,1.2,4.4,2.4c2.3,2.5,3.2,5.9,2.8,9.2l-0.1-0.6c1,2.8,1.6,5.7,2.1,8.6c0.5,2.9,0.9,5.7,1.1,8.6
	c0.2,2.9,0.4,5.8,0.2,8.7c-0.1,1.5-0.1,2.9-0.5,4.4c-0.2,0.8-0.4,1.6-0.8,2.3c-0.4,0.8-1,1.4-1.7,2c-1.4,1-2.9,1.4-4.3,1.8
	c-1.5,0.3-2.9,0.5-4.3,0.7c-2.9,0.4-5.8,0.6-8.7,0.5c-5.8-0.1-11.6-1.2-17.1-2.8 M253.4,226.8c-2.1-2-2-4.1-2-5
	c0.8,10.4,27.1,15.5,27.1,15.5c5.5,1.5,11.2,2.4,16.9,2.3c2.8-0.1,5.7-0.4,8.5-0.9c1.4-0.2,2.8-0.5,4.1-0.9c1.3-0.4,2.6-0.8,3.5-1.6
	c1.8-1.4,1.8-4.4,1.9-7.2s-0.1-5.6-0.3-8.5c-0.3-2.8-0.6-5.6-1.1-8.4c-0.5-2.8-1-5.6-1.9-8.2l-0.1-0.3v-0.3c0.4-2.6-0.4-5.4-2.1-7.2
	c-0.9-0.9-2-1.6-3.2-1.8c-1.2-0.3-2.6-0.2-3.9,0.1s-2.6,0.8-3.6,1.6s-1.7,1.9-2,3.2s-0.3,2.6,0,3.9c0.3,1.3,0.9,2.6,1.7,3.3l0.2,0.2
	l0.1,0.2c1.2,3.5,2.3,6.9,2.9,10.6c0.1,0.9,0.2,1.8,0.2,2.8c0,0.5,0,1-0.1,1.5s-0.3,1.1-0.7,1.5c-0.4,0.5-0.9,0.8-1.4,0.9
	c-0.5,0.2-1,0.2-1.5,0.2c-1,0-1.9-0.1-2.8-0.2c-1.8-0.3-3.6-0.6-5.4-1.2c-1.8-0.6-3.4-1.3-5.1-2c-3.3-1.5-6.5-3.1-9.9-4.3l0.3-1.1
	c3,0.7,6.1,1,9.1,0.7c1.5-0.2,3-0.5,4.3-1.2s2.4-1.6,3.2-2.8c1.6-2.4,1.8-5.6,1.5-8.6c-0.2-1.5-0.5-3-1-4.4s-1.1-2.9-1.9-4l-0.4-0.5
	l0.4-0.6c1.8-2.7,2.7-5.9,3-9.2c0.4-3.3,0.2-6.7-0.2-10c-0.2-1.7-0.5-3.3-0.8-5s-0.7-3.2-1.3-4.7c-1.2-3-3-5.7-5.3-8
	c-4.6-4.6-10.7-7.6-17-9.1c-6.4-1.6-13.2-1.7-19.7-1c-6.5,0.6-12.7,3.1-17.2,7.5c-2.3,2.2-4.1,4.8-5.5,7.7s-2.4,6-3,9.2
	c-1.2,6.4-1.1,13.1-0.2,19.6c0.5,3.3,1.2,6.5,2,9.8c0.4,1.6,0.9,3.2,1.4,4.8l0.4,1.2c0.1,0.4,0.2,0.7,0.4,1.3c0.4,1,0.7,2,1,3
	l-1.3,6.7c-0.1,0.5-0.2,1.1-0.3,1.6l-0.2,1.5l-0.4,3c-0.4,2-0.4,4.1-0.5,6.1c0,1-0.2,2-0.1,3l0.1,3c0.1,4.1,0.8,8,1.8,11.9
	c0.3,1,0.7,1.9,1,2.8c0.4,0.9,0.6,1.9,1.1,2.8l1.3,2.7l0.3,0.7l0.4,0.6l0.8,1.3l0.8,1.3l0.4,0.6l0.5,0.6l1.9,2.3
	c0.3,0.4,0.6,0.8,1,1.1l1.1,1.1c0.7,0.7,1.4,1.5,2.2,2.1c1.6,1.3,3.1,2.6,4.8,3.7c0.8,0.6,1.7,1.2,2.5,1.7l2.6,1.6
	c0.9,0.6,1.8,1,2.7,1.5l2.7,1.4c1.9,0.9,3.8,1.8,5.6,2.6c3.8,1.6,7.7,2.8,11.7,3.8c8,2,16.4,2.7,24.7,2.5c4.2-0.1,8.3-0.5,12.4-1
	c4.1-0.6,8.2-1.5,12.2-2.6s7.9-2.6,11.6-4.4s7.3-3.9,10.6-6.5s6.2-5.6,8.3-9.2c2.2-3.6,3.4-7.7,3.7-11.8v-0.1h0.1
	c0.9-0.4,1.8-0.7,2.6-1.2c0.4-0.2,0.8-0.5,1.2-0.7l1.1-0.9c1.4-1.3,2.3-3,3.2-4.7c1.5-3.5,2.3-7.2,2.7-11c0.2-0.9,0.2-1.9,0.2-2.8
	c0.1-1,0.2-1.9,0.2-2.8c0-1.9,0.1-3.8,0.1-5.7c-0.1-3.8-0.1-7.6-0.8-11.3c-0.2-1.9-0.8-3.6-1.3-5.5l-1-2.6l-0.3-0.6l-0.3-0.6
	l-0.7-1.2c-1.8-3.2-4.4-6-7.6-7.9s-6.9-3-10.6-3.1c-3.7-0.2-7.5,0.5-11.1,1.7c-1.8,0.6-3.4,1.4-4.9,2.6c-1.5,1.2-2.7,2.6-3.8,4.1
	c-2.2,3.1-3.5,6.7-4.6,10.3c-2.1,7.3-2.7,15-3.6,22.6c-0.2,1.9-0.5,3.8-1,5.7c-0.3,0.9-0.5,1.9-1,2.8c-0.5,1-1.3,1.7-2.1,2.3
	c-1.7,1.2-3.6,1.7-5.6,2.1c-1.9,0.4-3.9,0.4-5.8,0.4c-7.8-0.3-15.3-2.4-22.5-4.9C260.9,234.6,253.4,226.8,253.4,226.8z"/>
</svg>
